<svg xmlns="http://www.w3.org/2000/svg" xmlns:xlink="http://www.w3.org/1999/xlink" contentStyleType="text/css" data-diagram-type="DESCRIPTION" height="687px" preserveAspectRatio="none" style="width:1170px;height:687px;background:#FFFFFF;" version="1.1" viewBox="0 0 1170 687" width="1170px" zoomAndPan="magnify"><defs/><g><!--entity app--><g class="entity" data-entity="app" data-source-line="9" data-uid="ent0002" id="entity_app"><rect fill="#F1F1F1" height="37.6094" rx="2.5" ry="2.5" style="stroke:#181818;stroke-width:0.5;" width="122.6963" x="896.5" y="7"/><text fill="#000000" font-family="sans-serif" font-size="14" font-weight="bold" lengthAdjust="spacing" textLength="102.6963" x="906.5" y="31.5332">Healthcare App</text></g><!--entity s3--><g class="entity" data-entity="s3" data-source-line="10" data-uid="ent0003" id="entity_s3"><rect fill="#F1F1F1" height="37.6094" rx="2.5" ry="2.5" style="stroke:#181818;stroke-width:0.5;" width="87.6963" x="914" y="139"/><text fill="#000000" font-family="sans-serif" font-size="14" font-weight="bold" lengthAdjust="spacing" textLength="67.6963" x="924" y="163.5332">S3 Bucket</text></g><!--entity trail--><g class="entity" data-entity="trail" data-source-line="11" data-uid="ent0004" id="entity_trail"><rect fill="#FFC0CB" height="37.6094" rx="2.5" ry="2.5" style="stroke:#181818;stroke-width:0.5;" width="89.2207" x="554.5" y="314"/><text fill="#000000" font-family="sans-serif" font-size="14" font-weight="bold" lengthAdjust="spacing" textLength="69.2207" x="564.5" y="338.5332">CloudTrail</text></g><!--entity cw--><g class="entity" data-entity="cw" data-source-line="12" data-uid="ent0005" id="entity_cw"><rect fill="#FFC0CB" height="37.6094" rx="2.5" ry="2.5" style="stroke:#181818;stroke-width:0.5;" width="138.9863" x="426.5" y="473"/><text fill="#000000" font-family="sans-serif" font-size="14" font-weight="bold" lengthAdjust="spacing" textLength="118.9863" x="436.5" y="497.5332">CloudWatch Logs</text></g><!--entity siem--><g class="entity" data-entity="siem" data-source-line="13" data-uid="ent0006" id="entity_siem"><rect fill="#FFC0CB" height="37.6094" rx="2.5" ry="2.5" style="stroke:#181818;stroke-width:0.5;" width="107.9238" x="7" y="616"/><text fill="#000000" font-family="sans-serif" font-size="14" font-weight="bold" lengthAdjust="spacing" textLength="87.9238" x="17" y="640.5332">SIEM System</text></g><!--entity analytics--><g class="entity" data-entity="analytics" data-source-line="14" data-uid="ent0007" id="entity_analytics"><rect fill="#FFC0CB" height="37.6094" rx="2.5" ry="2.5" style="stroke:#181818;stroke-width:0.5;" width="111.793" x="222" y="616"/><text fill="#000000" font-family="sans-serif" font-size="14" font-weight="bold" lengthAdjust="spacing" textLength="91.793" x="232" y="640.5332">Log Analytics</text></g><!--entity tools--><g class="entity" data-entity="tools" data-source-line="15" data-uid="ent0008" id="entity_tools"><rect fill="#FFC0CB" height="37.6094" rx="2.5" ry="2.5" style="stroke:#181818;stroke-width:0.5;" width="135.8965" x="777" y="616"/><text fill="#000000" font-family="sans-serif" font-size="14" font-weight="bold" lengthAdjust="spacing" textLength="115.8965" x="787" y="640.5332">Third-Party Tools</text></g><!--entity security--><g class="entity" data-entity="security" data-source-line="16" data-uid="ent0009" id="entity_security"><rect fill="#F1F1F1" height="37.6094" rx="2.5" ry="2.5" style="stroke:#181818;stroke-width:0.5;" width="110.248" x="86" y="473"/><text fill="#000000" font-family="sans-serif" font-size="14" lengthAdjust="spacing" textLength="90.248" x="96" y="497.5332">Security Team</text></g><!--entity attacker--><g class="entity" data-entity="attacker" data-source-line="17" data-uid="ent0010" id="entity_attacker"><rect fill="#F1F1F1" height="37.6094" rx="2.5" ry="2.5" style="stroke:#181818;stroke-width:0.5;" width="114.917" x="330.5" y="139"/><text fill="#000000" font-family="sans-serif" font-size="14" lengthAdjust="spacing" textLength="94.917" x="340.5" y="163.5332">Malicious Actor</text></g><g class="entity" data-entity="GMN24" data-source-line="36" data-uid="ent0025" id="entity_GMN24"><path d="M679,271 L679,329 L643.52,333 L679,337 L679,395.4609 A0,0 0 0 0 679,395.4609 L846.707,395.4609 A0,0 0 0 0 846.707,395.4609 L846.707,281 L836.707,271 L679,271 A0,0 0 0 0 679,271" fill="#FEFFDD" style="stroke:#181818;stroke-width:0.5;"/><path d="M836.707,271 L836.707,281 L846.707,281 L836.707,271" fill="#FEFFDD" style="stroke:#181818;stroke-width:0.5;"/><text fill="#000000" font-family="sans-serif" font-size="13" lengthAdjust="spacing" textLength="98.9663" x="685" y="289.4951">STRIDE Threats:</text><text fill="#000000" font-family="sans-serif" font-size="13" lengthAdjust="spacing" textLength="133.688" x="685" y="305.8467">S: Log injection attacks</text><text fill="#000000" font-family="sans-serif" font-size="13" lengthAdjust="spacing" textLength="109.8335" x="685" y="322.1982">T: Log modification</text><text fill="#000000" font-family="sans-serif" font-size="13" lengthAdjust="spacing" textLength="119.2534" x="685" y="338.5498">R: Log deletion/gaps</text><text fill="#000000" font-family="sans-serif" font-size="13" lengthAdjust="spacing" textLength="138.7407" x="685" y="354.9014">I: PHI exposure in paths</text><text fill="#000000" font-family="sans-serif" font-size="13" lengthAdjust="spacing" textLength="146.707" x="685" y="371.2529">D: Log pipeline disruption</text><text fill="#000000" font-family="sans-serif" font-size="13" lengthAdjust="spacing" textLength="143.8062" x="685" y="387.6045">E: Log access escalation</text></g><g class="entity" data-entity="GMN27" data-source-line="46" data-uid="ent0028" id="entity_GMN27"><path d="M486,589 L486,680.7578 L687.6479,680.7578 L687.6479,599 L677.6479,589 L486,589" fill="#FEFFDD" style="stroke:#181818;stroke-width:0.5;"/><path d="M677.6479,589 L677.6479,599 L687.6479,599 L677.6479,589" fill="#FEFFDD" style="stroke:#181818;stroke-width:1;"/><text fill="#000000" font-family="sans-serif" font-size="13" lengthAdjust="spacing" textLength="89.5654" x="492" y="607.4951">Risk Amplifiers:</text><text fill="#000000" font-family="sans-serif" font-size="13" lengthAdjust="spacing" textLength="180.6479" x="492" y="623.8467">- Log replication across regions</text><text fill="#000000" font-family="sans-serif" font-size="13" lengthAdjust="spacing" textLength="142.3525" x="492" y="640.1982">- Long-term log retention</text><text fill="#000000" font-family="sans-serif" font-size="13" lengthAdjust="spacing" textLength="158.958" x="492" y="656.5498">- Cross-account log sharing</text><text fill="#000000" font-family="sans-serif" font-size="13" lengthAdjust="spacing" textLength="138.0234" x="492" y="672.9014">- Automated log parsing</text></g><!--link app to s3--><g class="link" data-entity-1="app" data-entity-2="s3" data-source-line="19" data-uid="lnk11" id="link_app_s3"><path d="M958,45.08 C958,69.77 958,107.82 958,132.66" fill="none" id="app-to-s3" style="stroke:#181818;stroke-width:1;"/><polygon fill="#181818" points="958,138.66,962,129.66,958,133.66,954,129.66,958,138.66" style="stroke:#181818;stroke-width:1;"/><text fill="#000000" font-family="sans-serif" font-size="13" lengthAdjust="spacing" textLength="125.7153" x="997.6636" y="89.4951">Accesses PHI objects</text><text fill="#000000" font-family="sans-serif" font-size="13" lengthAdjust="spacing" textLength="203.0425" x="959" y="105.8467">(/patients/jdoe/results/positive.json)</text></g><!--link s3 to trail--><g class="link" data-entity-1="s3" data-entity-2="trail" data-source-line="20" data-uid="lnk12" id="link_s3_trail"><path d="M913.83,169.47 C853.38,185.12 743.06,218.53 661,271 C642.68,282.71 629.2917,296.0264 617.6417,309.3964" fill="none" id="s3-to-trail" style="stroke:#181818;stroke-width:1;"/><polygon fill="#181818" points="613.7,313.92,622.6283,309.7623,616.9847,310.1503,616.5968,304.5068,613.7,313.92" style="stroke:#181818;stroke-width:1;"/><text fill="#000000" font-family="sans-serif" font-size="13" lengthAdjust="spacing" textLength="158.9644" x="795" y="221.4951">Generates access logs with</text><text fill="#000000" font-family="sans-serif" font-size="13" lengthAdjust="spacing" textLength="120.6816" x="814.1414" y="237.8467">PHI-containing paths</text></g><!--link trail to cw--><g class="link" data-entity-1="trail" data-entity-2="cw" data-source-line="21" data-uid="lnk13" id="link_trail_cw"><path d="M587.18,352.01 C567.42,382.13 531.1718,437.3936 511.2818,467.7036" fill="none" id="trail-to-cw" style="stroke:#181818;stroke-width:1;"/><polygon fill="#181818" points="507.99,472.72,516.272,467.39,510.7332,468.5397,509.5835,463.0009,507.99,472.72" style="stroke:#181818;stroke-width:1;"/><text fill="#000000" font-family="sans-serif" font-size="13" lengthAdjust="spacing" textLength="75.8608" x="540" y="439.4951">Streams logs</text></g><!--link cw to siem--><g class="link" data-entity-1="cw" data-entity-2="siem" data-source-line="22" data-uid="lnk14" id="link_cw_siem"><path d="M429.92,511.1 C399.13,519.77 362.07,530.52 329,541 C252.24,565.33 169.8531,594.4814 116.2631,613.8414" fill="none" id="cw-to-siem" style="stroke:#181818;stroke-width:1;"/><polygon fill="#181818" points="110.62,615.88,120.4437,616.5841,115.3225,614.1812,117.7255,609.06,110.62,615.88" style="stroke:#181818;stroke-width:1;"/><text fill="#000000" font-family="sans-serif" font-size="13" lengthAdjust="spacing" textLength="81.6372" x="330" y="555.4951">Forwards logs</text></g><!--link cw to analytics--><g class="link" data-entity-1="cw" data-entity-2="analytics" data-source-line="23" data-uid="lnk15" id="link_cw_analytics"><path d="M477.62,511.1 C462.81,525.14 441.05,544.58 420,559 C387.34,581.37 352.6363,599.4187 323.3863,613.3587" fill="none" id="cw-to-analytics" style="stroke:#181818;stroke-width:1;"/><polygon fill="#181818" points="317.97,615.94,327.8154,615.6789,322.4836,613.7889,324.3736,608.4571,317.97,615.94" style="stroke:#181818;stroke-width:1;"/><text fill="#000000" font-family="sans-serif" font-size="13" lengthAdjust="spacing" textLength="103.3335" x="444" y="555.4951">Analyzes patterns</text></g><!--link cw to tools--><g class="link" data-entity-1="cw" data-entity-2="tools" data-source-line="24" data-uid="lnk16" id="link_cw_tools"><path d="M540.56,511 C607.54,538.06 727.8868,586.6825 794.8668,613.7425" fill="none" id="cw-to-tools" style="stroke:#181818;stroke-width:1;"/><polygon fill="#181818" points="800.43,615.99,793.5836,608.91,795.794,614.1171,790.5869,616.3275,800.43,615.99" style="stroke:#181818;stroke-width:1;"/><text fill="#000000" font-family="sans-serif" font-size="13" lengthAdjust="spacing" textLength="140.9053" x="651" y="555.4951">Integrates for monitoring</text></g><!--link security to siem--><g class="link" data-entity-1="security" data-entity-2="siem" data-source-line="26" data-uid="lnk17" id="link_security_siem"><path d="M91.01,511 C77.97,518.24 65.49,528.02 58,541 C44.68,564.09 48.2286,590.2541 53.5286,610.0541" fill="none" id="security-to-siem" style="stroke:#181818;stroke-width:1;"/><polygon fill="#181818" points="55.08,615.85,56.6168,606.1218,53.7871,611.02,48.8889,608.1904,55.08,615.85" style="stroke:#181818;stroke-width:1;"/><text fill="#000000" font-family="sans-serif" font-size="13" lengthAdjust="spacing" textLength="76.5845" x="59" y="555.4951">Reviews logs</text></g><!--link security to analytics--><g class="link" data-entity-1="security" data-entity-2="analytics" data-source-line="27" data-uid="lnk18" id="link_security_analytics"><path d="M147.98,511.15 C153.98,525.22 163.63,544.67 176,559 C195.97,582.13 219.2285,599.0757 240.9785,612.6357" fill="none" id="security-to-analytics" style="stroke:#181818;stroke-width:1;"/><polygon fill="#181818" points="246.07,615.81,240.5489,607.6542,241.8271,613.1647,236.3165,614.4429,246.07,615.81" style="stroke:#181818;stroke-width:1;"/><text fill="#000000" font-family="sans-serif" font-size="13" lengthAdjust="spacing" textLength="74.4326" x="177" y="555.4951">Queries data</text></g><!--link attacker to trail--><g class="link" data-entity-1="attacker" data-entity-2="trail" data-source-line="29" data-uid="lnk19" id="link_attacker_trail"><path d="M410.77,177.07 C438.42,199.06 486.39,237.44 527,271 C544.3,285.3 559.1486,297.8621 573.4486,310.0821" fill="none" id="attacker-to-trail" style="stroke:#181818;stroke-width:1;"/><polygon fill="#181818" points="578.01,313.98,573.7665,305.0922,574.2088,310.7317,568.5693,311.1741,578.01,313.98" style="stroke:#181818;stroke-width:1;"/><text fill="#000000" font-family="sans-serif" font-size="13" lengthAdjust="spacing" textLength="174.1479" x="491" y="229.4951">Attempts unauthorized access</text></g><!--link attacker to cw--><g class="link" data-entity-1="attacker" data-entity-2="cw" data-source-line="30" data-uid="lnk20" id="link_attacker_cw"><path d="M385.45,177.14 C380.53,218.05 372.89,319.78 406,395 C420.17,427.2 445.1995,451.6211 466.6095,468.9811" fill="none" id="attacker-to-cw" style="stroke:#181818;stroke-width:1;"/><polygon fill="#181818" points="471.27,472.76,466.7985,463.9847,467.3863,469.6109,461.76,470.1987,471.27,472.76" style="stroke:#181818;stroke-width:1;"/><text fill="#000000" font-family="sans-serif" font-size="13" lengthAdjust="spacing" textLength="129.3208" x="407" y="338.4951">Extracts historical logs</text></g><!--link attacker to siem--><g class="link" data-entity-1="attacker" data-entity-2="siem" data-source-line="31" data-uid="lnk21" id="link_attacker_siem"><path d="M362.57,177.32 C302.87,221.55 152.46,340.38 68,473 C46.68,506.47 39.59,519.56 44,559 C46.2,578.64 49.9603,594.8517 54.0703,609.9117" fill="none" id="attacker-to-siem" style="stroke:#181818;stroke-width:1;"/><polygon fill="#181818" points="55.65,615.7,57.1394,605.9644,54.3336,610.8764,49.4216,608.0706,55.65,615.7" style="stroke:#181818;stroke-width:1;"/><text fill="#000000" font-family="sans-serif" font-size="13" lengthAdjust="spacing" textLength="108.3799" x="102" y="439.4951">Queries audit trails</text></g><!--link attacker to analytics--><g class="link" data-entity-1="attacker" data-entity-2="analytics" data-source-line="32" data-uid="lnk22" id="link_attacker_analytics"><path d="M381.52,177.13 C366.49,219.8 328.95,330.12 308,425 C292.59,494.8 283.8371,573.5588 280.2571,609.9688" fill="none" id="attacker-to-analytics" style="stroke:#181818;stroke-width:1;"/><polygon fill="#181818" points="279.67,615.94,284.5315,607.3746,280.1593,610.964,276.5699,606.5918,279.67,615.94" style="stroke:#181818;stroke-width:1;"/><text fill="#000000" font-family="sans-serif" font-size="13" lengthAdjust="spacing" textLength="107.6753" x="309" y="439.4951">Mines pattern data</text></g><!--link attacker to tools--><g class="link" data-entity-1="attacker" data-entity-2="tools" data-source-line="33" data-uid="lnk23" id="link_attacker_tools"><path d="M445.74,163.4 C561.58,173.6 815.4,203.34 864,271 C942.42,380.17 879.5286,553.4445 855.4086,610.4345" fill="none" id="attacker-to-tools" style="stroke:#181818;stroke-width:1;"/><polygon fill="#181818" points="853.07,615.96,860.2615,609.2308,855.0188,611.3554,852.8942,606.1127,853.07,615.96" style="stroke:#181818;stroke-width:1;"/><text fill="#000000" font-family="sans-serif" font-size="13" lengthAdjust="spacing" textLength="127.1816" x="902" y="439.4951">Accesses dashboards</text></g><!--link cw to GMN27--><g class="link" data-entity-1="cw" data-entity-2="GMN27" data-source-line="46" data-uid="lnk29" id="link_cw_GMN27"><path d="M532.13,511.08 C544.22,518.77 556.71,528.82 565,541 C574.52,554.99 579.95,572.6 583.03,588.71" fill="none" id="cw-GMN27" style="stroke:#181818;stroke-width:1;stroke-dasharray:7.0,7.0;"/></g><!--SRC=[XLHDRzim3BtxLt0zRGVNX-va507IDbi3D43MPDYb5yLYR3Mo94XqqtJOVnzbEKdJ3OXluiVZuoFDJnBNoY0ibe_JkydFnmTeY5meYyABxMMjgEbMNK1VMKDewBAoRU6qCDIrEWyajLeLjr_pUJJzd3qKhGY4laXmMHOsoZZXHGiUAnAcrWY_C-3lHbIRsjlEo5khhR- -dfgrlLEXqZPq7aSZc2kpoVvaMQCaGaH5Ipk7MNQ4khXUZUvHQ6eguH76pbqNgz45Y032kG-1YokuwQeDqY4cN7q8kTMsaqilb3x4K7p1l_J-b_bBKDN0Wwt38RtQdizTJ2SpMEounVP8JM5xFfDBmTW8lIDL7MkAlUKymB9HNkPpuMa7Islr4OJYwmp00glEgvYAeasq1ylxg9dGgbAs2p2koFf4aOZdZpxBU4wGvoEU1PGSK648661-FmMxUcQGy6G-5qwGukqBnREqM7WCdUQ7iq6HUi7Bvs3DbumH8b0QM0dVqQ0Nn62YHmNDSu4jR_IJOVWyRhHGHfaQ6Bu9MKgC43oq4XRakQkKbh6b9ncdKi8twxV2orFVKVKopUIDIpCoBwuv12LLIvZotrGdTclheRL6iJJCXN-PlQZl2ZxYYyBjKEyau7tL7nrwnOXIa61X1ubFH1apdTPHWCw8ZXek-OPo4EWqezTWyig9F0DeL8ZyAg4JXvFGWUI-lEYaebJnG-1xiZE-EWTz4kLJneDIXvMG8ZGh6sNFCcC9mQkw8R3hL8gFIZewi6nuS1JAQ2dZtmZAn4rIrWnx5zYrJAxMIhNclgANhO_9Ab5Zj1IrS35uMlORYQ-k_miOSDWPWBkKuPH37G-fLC5tRe2R9EUmW1XOlrG9ZOJOnD3AoXBPDlPIRICB5JOmRfrcQkZxJl8Uo2FR4ba6zPP1FTRy2aE8gNFMiur3Oa-ys8b83hSnEcScV7AfzuT6z1iNlUEEw_Cwojx35pj4pvxbNm00]--></g></svg>