<svg xmlns="http://www.w3.org/2000/svg" xmlns:xlink="http://www.w3.org/1999/xlink" contentStyleType="text/css" data-diagram-type="DESCRIPTION" height="502px" preserveAspectRatio="none" style="width:1014px;height:502px;background:#FFFFFF;" version="1.1" viewBox="0 0 1014 502" width="1014px" zoomAndPan="magnify"><defs/><g><!--entity dev--><g class="entity" data-entity="dev" data-source-line="12" data-uid="ent0002" id="entity_dev"><rect fill="#F1F1F1" height="37.6094" rx="2.5" ry="2.5" style="stroke:#181818;stroke-width:0.5;" width="110.248" x="213" y="7"/><text fill="#000000" font-family="sans-serif" font-size="14" lengthAdjust="spacing" textLength="90.248" x="223" y="31.5332">DevOps Team</text></g><!--entity cicd--><g class="entity" data-entity="cicd" data-source-line="13" data-uid="ent0003" id="entity_cicd"><rect fill="#F1F1F1" height="37.6094" rx="2.5" ry="2.5" style="stroke:#181818;stroke-width:0.5;" width="111.8135" x="212" y="123"/><text fill="#000000" font-family="sans-serif" font-size="14" lengthAdjust="spacing" textLength="91.8135" x="222" y="147.5332">CI/CD Pipeline</text></g><!--entity lambda--><g class="entity" data-entity="lambda" data-source-line="14" data-uid="ent0004" id="entity_lambda"><rect fill="#F1F1F1" height="37.6094" rx="2.5" ry="2.5" style="stroke:#181818;stroke-width:0.5;" width="106.3721" x="215" y="282"/><text fill="#000000" font-family="sans-serif" font-size="14" lengthAdjust="spacing" textLength="86.3721" x="225" y="306.5332">AWS Lambda</text></g><!--entity trail--><g class="entity" data-entity="trail" data-source-line="15" data-uid="ent0005" id="entity_trail"><rect fill="#FFC0CB" height="55.2188" rx="2.5" ry="2.5" style="stroke:#181818;stroke-width:0.5;" width="126.2754" x="411" y="441"/><text fill="#000000" font-family="sans-serif" font-size="14" font-style="italic" lengthAdjust="spacing" textLength="104.2754" x="422" y="465.5332">&#171;InfoDisclosure&#187;</text><text fill="#000000" font-family="sans-serif" font-size="14" lengthAdjust="spacing" textLength="63.7998" x="442.2378" y="483.1426">CloudTrail</text></g><!--entity cost--><g class="entity" data-entity="cost" data-source-line="16" data-uid="ent0006" id="entity_cost"><rect fill="#FFC0CB" height="55.2188" rx="2.5" ry="2.5" style="stroke:#181818;stroke-width:0.5;" width="126.2754" x="223" y="441"/><text fill="#000000" font-family="sans-serif" font-size="14" font-style="italic" lengthAdjust="spacing" textLength="104.2754" x="234" y="465.5332">&#171;InfoDisclosure&#187;</text><text fill="#000000" font-family="sans-serif" font-size="14" lengthAdjust="spacing" textLength="84.8066" x="243.7344" y="483.1426">Cost Explorer</text></g><!--entity pager--><g class="entity" data-entity="pager" data-source-line="17" data-uid="ent0007" id="entity_pager"><rect fill="#FFC0CB" height="55.2188" rx="2.5" ry="2.5" style="stroke:#181818;stroke-width:0.5;" width="126.2754" x="7" y="441"/><text fill="#000000" font-family="sans-serif" font-size="14" font-style="italic" lengthAdjust="spacing" textLength="104.2754" x="18" y="465.5332">&#171;InfoDisclosure&#187;</text><text fill="#000000" font-family="sans-serif" font-size="14" lengthAdjust="spacing" textLength="66.1445" x="37.0654" y="483.1426">PagerDuty</text></g><!--entity bill--><g class="entity" data-entity="bill" data-source-line="18" data-uid="ent0008" id="entity_bill"><rect fill="#FFC0CB" height="55.2188" rx="2.5" ry="2.5" style="stroke:#181818;stroke-width:0.5;" width="126.2754" x="738" y="441"/><text fill="#000000" font-family="sans-serif" font-size="14" font-style="italic" lengthAdjust="spacing" textLength="104.2754" x="749" y="465.5332">&#171;InfoDisclosure&#187;</text><text fill="#000000" font-family="sans-serif" font-size="14" lengthAdjust="spacing" textLength="90.2617" x="756.0068" y="483.1426">Billing Reports</text></g><!--entity attacker--><g class="entity" data-entity="attacker" data-source-line="19" data-uid="ent0009" id="entity_attacker"><rect fill="#F1F1F1" height="37.6094" rx="2.5" ry="2.5" style="stroke:#181818;stroke-width:0.5;" width="114.917" x="630.5" y="282"/><text fill="#000000" font-family="sans-serif" font-size="14" lengthAdjust="spacing" textLength="94.917" x="640.5" y="306.5332">Malicious Actor</text></g><g class="entity" data-entity="GMN20" data-source-line="34" data-uid="ent0021" id="entity_GMN20"><path d="M356,239 L356,297 L321.37,301 L356,305 L356,363.4609 A0,0 0 0 0 356,363.4609 L593.7661,363.4609 A0,0 0 0 0 593.7661,363.4609 L593.7661,249 L583.7661,239 L356,239 A0,0 0 0 0 356,239" fill="#FEFFDD" style="stroke:#181818;stroke-width:0.5;"/><path d="M583.7661,239 L583.7661,249 L593.7661,249 L583.7661,239" fill="#FEFFDD" style="stroke:#181818;stroke-width:0.5;"/><text fill="#000000" font-family="sans-serif" font-size="13" lengthAdjust="spacing" textLength="98.9663" x="362" y="257.4951">STRIDE Threats:</text><text fill="#000000" font-family="sans-serif" font-size="13" lengthAdjust="spacing" textLength="205.9497" x="362" y="273.8467">Spoofing: Impersonation of DevOps</text><text fill="#000000" font-family="sans-serif" font-size="13" lengthAdjust="spacing" textLength="164.7407" x="362" y="290.1982">Tampering: Tag modification</text><text fill="#000000" font-family="sans-serif" font-size="13" lengthAdjust="spacing" textLength="187.1797" x="362" y="306.5498">Repudiation: Tag creation denial</text><text fill="#000000" font-family="sans-serif" font-size="13" lengthAdjust="spacing" textLength="216.7661" x="362" y="322.9014">InfoDisclosure: PHI exposure via tags</text><text fill="#000000" font-family="sans-serif" font-size="13" lengthAdjust="spacing" textLength="162.5571" x="362" y="339.2529">DOS: Tag system disruption</text><text fill="#000000" font-family="sans-serif" font-size="13" lengthAdjust="spacing" textLength="171.9771" x="362" y="355.6045">EOP: Elevated access to tags</text></g><!--link dev to cicd--><g class="link" data-entity-1="dev" data-entity-2="cicd" data-source-line="21" data-uid="lnk10" id="link_dev_cicd"><path d="M268,45.06 C268,66.28 268,95.3 268,116.64" fill="none" id="dev-to-cicd" style="stroke:#181818;stroke-width:1;"/><polygon fill="#181818" points="268,122.64,272,113.64,268,117.64,264,113.64,268,122.64" style="stroke:#181818;stroke-width:1;"/><text fill="#000000" font-family="sans-serif" font-size="13" lengthAdjust="spacing" textLength="98.9854" x="269" y="89.4951">Creates PHI tags</text></g><!--link cicd to lambda--><g class="link" data-entity-1="cicd" data-entity-2="lambda" data-source-line="22" data-uid="lnk11" id="link_cicd_lambda"><path d="M268,161.01 C268,191.13 268,245.41 268,275.72" fill="none" id="cicd-to-lambda" style="stroke:#181818;stroke-width:1;"/><polygon fill="#181818" points="268,281.72,272,272.72,268,276.72,264,272.72,268,281.72" style="stroke:#181818;stroke-width:1;"/><text fill="#000000" font-family="sans-serif" font-size="13" lengthAdjust="spacing" textLength="101.8799" x="269" y="205.4951">Deploys with tags</text></g><!--link lambda to trail--><g class="link" data-entity-1="lambda" data-entity-2="trail" data-source-line="23" data-uid="lnk12" id="link_lambda_trail"><path d="M286.31,320.13 C299.88,333.01 319.2,350.22 338,363 C362,379.32 372.38,376.14 396,393 C415.51,406.93 430.8421,421.2339 445.4621,436.3739" fill="none" id="lambda-to-trail" style="stroke:#181818;stroke-width:1;"/><polygon fill="#181818" points="449.63,440.69,446.2556,431.4372,446.1568,437.0932,440.5008,436.9944,449.63,440.69" style="stroke:#181818;stroke-width:1;"/><text fill="#000000" font-family="sans-serif" font-size="13" lengthAdjust="spacing" textLength="78.7871" x="418" y="407.4951">Logs tag data</text></g><!--link lambda to cost--><g class="link" data-entity-1="lambda" data-entity-2="cost" data-source-line="24" data-uid="lnk13" id="link_lambda_cost"><path d="M214.82,318.74 C164.79,337.41 101.51,370.38 130,411 C150.92,440.83 183.376,453.806 216.806,460.476" fill="none" id="lambda-to-cost" style="stroke:#181818;stroke-width:1;"/><polygon fill="#181818" points="222.69,461.65,214.6466,455.9663,217.7866,460.6717,213.0813,463.8117,222.69,461.65" style="stroke:#181818;stroke-width:1;"/><text fill="#000000" font-family="sans-serif" font-size="13" lengthAdjust="spacing" textLength="127.8862" x="131" y="407.4951">Reports cost with tags</text></g><!--link lambda to pager--><g class="link" data-entity-1="lambda" data-entity-2="pager" data-source-line="25" data-uid="lnk14" id="link_lambda_pager"><path d="M214.77,305.15 C157.31,311.72 68.35,331.83 26,393 C15.4,408.31 21.3567,421.8279 34.4767,436.2779" fill="none" id="lambda-to-pager" style="stroke:#181818;stroke-width:1;"/><polygon fill="#181818" points="38.51,440.72,35.4215,431.3679,35.1489,437.0182,29.4986,436.7456,38.51,440.72" style="stroke:#181818;stroke-width:1;"/><text fill="#000000" font-family="sans-serif" font-size="13" lengthAdjust="spacing" textLength="88.1436" x="27" y="407.4951">Alerts with tags</text></g><!--link lambda to bill--><g class="link" data-entity-1="lambda" data-entity-2="bill" data-source-line="26" data-uid="lnk15" id="link_lambda_bill"><path d="M282.91,320.06 C295.86,334.36 315.96,353.46 338,363 C460.16,415.89 509.08,352.85 636,393 C651.56,397.92 653.36,403.8 668,411 C690.4,422.02 709.9444,430.6854 732.2344,440.0054" fill="none" id="lambda-to-bill" style="stroke:#181818;stroke-width:1;"/><polygon fill="#181818" points="737.77,442.32,731.0097,435.1578,733.157,440.3912,727.9236,442.5385,737.77,442.32" style="stroke:#181818;stroke-width:1;"/><text fill="#000000" font-family="sans-serif" font-size="13" lengthAdjust="spacing" textLength="104.7744" x="669" y="407.4951">Generates reports</text></g><!--link attacker to trail--><g class="link" data-entity-1="attacker" data-entity-2="trail" data-source-line="28" data-uid="lnk16" id="link_attacker_trail"><path d="M722.88,320.16 C759.7,341.66 808.95,378.65 782,411 C766.47,429.64 628.8055,449.0203 543.2755,459.5003" fill="none" id="attacker-to-trail" style="stroke:#181818;stroke-width:1;"/><polygon fill="#181818" points="537.32,460.23,546.7397,463.1057,542.2829,459.6219,545.7667,455.1651,537.32,460.23" style="stroke:#181818;stroke-width:1;"/><text fill="#000000" font-family="sans-serif" font-size="13" lengthAdjust="spacing" textLength="65.0381" x="790" y="407.4951">Reads logs</text></g><!--link attacker to cost--><g class="link" data-entity-1="attacker" data-entity-2="cost" data-source-line="29" data-uid="lnk17" id="link_attacker_cost"><path d="M668.09,320.02 C653.11,333 631.68,350.39 611,363 C588.92,376.46 529.39,402.4 505,411 C490.19,416.22 414.1605,435.5334 354.8605,450.3734" fill="none" id="attacker-to-cost" style="stroke:#181818;stroke-width:1;"/><polygon fill="#181818" points="349.04,451.83,358.7418,453.5254,353.8904,450.6162,356.7997,445.7648,349.04,451.83" style="stroke:#181818;stroke-width:1;"/><text fill="#000000" font-family="sans-serif" font-size="13" lengthAdjust="spacing" textLength="78.749" x="550" y="407.4951">Views reports</text></g><!--link attacker to pager--><g class="link" data-entity-1="attacker" data-entity-2="pager" data-source-line="30" data-uid="lnk18" id="link_attacker_pager"><path d="M671.25,320.09 C656.79,334.41 634.58,353.52 611,363 C480.11,415.63 429.63,350.83 295,393 C279.43,397.88 278.04,404.67 263,411 C221.01,428.68 177.4922,441.5305 139.2122,451.3405" fill="none" id="attacker-to-pager" style="stroke:#181818;stroke-width:1;"/><polygon fill="#181818" points="133.4,452.83,143.1113,454.4706,138.2435,451.5888,141.1253,446.721,133.4,452.83" style="stroke:#181818;stroke-width:1;"/><text fill="#000000" font-family="sans-serif" font-size="13" lengthAdjust="spacing" textLength="91.0317" x="296" y="407.4951">Accesses alerts</text></g><!--link attacker to bill--><g class="link" data-entity-1="attacker" data-entity-2="bill" data-source-line="31" data-uid="lnk19" id="link_attacker_bill"><path d="M745.88,310.84 C793.35,321.47 857.65,344.39 889,393 C901.26,412.01 890.6994,425.6705 869.3294,438.4505" fill="none" id="attacker-to-bill" style="stroke:#181818;stroke-width:1;"/><polygon fill="#181818" points="864.18,441.53,873.9571,440.3437,868.4712,438.9637,869.8511,433.4778,864.18,441.53" style="stroke:#181818;stroke-width:1;"/><text fill="#000000" font-family="sans-serif" font-size="13" lengthAdjust="spacing" textLength="112.7217" x="894" y="407.4951">Extracts billing data</text></g><!--SRC=[XLJ1Rjim3BtxAxZUKrzsCee2RHnq0L8aID8DEp8IumYH9KEIamR3_dsKbBOn5hG-IUGZ-VWe-fkahJ84g_LoMazUbZFOXT3vgYmT7cyR5NRzflVaX3M1JBWLjYqxZIRqhHxv8BNQbEFleqKqlJpFoXPz85VcT4NXzyfqwB05HoAWQJJ1dmBuUqInRvpjZHnRRTtTtQgpbgaqz_UmK6P_7RJ6jYENKRz9QtkyZbjIrqk5GLd3oBdZodGTEJLRMoiljFMzeq-Br_CL-vySdgxx9tOHutlNQIh-5iL7opSr7UQTXpLXUmFeGTBXqZsUbkEQAtUaUHW98PIGbv27NokOORkHcDmw7GSvjEtbsg7I2H3Y2VxlRn1YVO39QyVioUMgqV9vq08RSdKVJYcWYxSl8XwLvhOQuA5O5toAsx3jYx1dr4eestju4C5cVXW2gqwkA5X168tkaqvGmTWH1lAm-365W8qlaZq2ib8CgOaRFNauygFEcBCheh9S5SniuwCJ90Qy12HbghSUylLgfgn81G-Q8l0g9dLVmHCPSecsoscBugt10QabeUIHCxMX_ypffwBZHue1ufsC4EGz5yB4QWWwivcySZqHycpYl984XR61mAbc5y1ktzuTd7yOiDv5uNqLBUS5hc0QbzHRa_OlHkNdpvZt_Qtus41hfTegaN3ilTZQx1SnUSmXoIZK31a-c2hDcrwxT8E3mYmr0EzgJk5F_4DgGIhl-kvSPp9VSBkQ3goz14pQGB0vbeo4sFC_]--></g></svg>