<svg xmlns="http://www.w3.org/2000/svg" xmlns:xlink="http://www.w3.org/1999/xlink" contentStyleType="text/css" data-diagram-type="DESCRIPTION" height="634px" preserveAspectRatio="none" style="width:757px;height:634px;background:#FFFFFF;" version="1.1" viewBox="0 0 757 634" width="757px" zoomAndPan="magnify"><defs/><g><!--entity app--><g class="entity" data-entity="app" data-source-line="10" data-uid="ent0002" id="entity_app"><rect fill="#F1F1F1" height="37.6094" rx="2.5" ry="2.5" style="stroke:#181818;stroke-width:0.5;" width="88.4893" x="55.07" y="7"/><text fill="#000000" font-family="sans-serif" font-size="14" lengthAdjust="spacing" textLength="68.4893" x="65.07" y="31.5332">Application</text></g><!--entity prom--><g class="entity" data-entity="prom" data-source-line="11" data-uid="ent0003" id="entity_prom"><rect fill="#FFC0CB" height="55.2188" rx="2.5" ry="2.5" style="stroke:#181818;stroke-width:0.5;" width="126.2754" x="185.07" y="123"/><text fill="#000000" font-family="sans-serif" font-size="14" font-style="italic" lengthAdjust="spacing" textLength="104.2754" x="196.07" y="147.5332">&#171;InfoDisclosure&#187;</text><text fill="#000000" font-family="sans-serif" font-size="14" font-weight="bold" lengthAdjust="spacing" textLength="80.9102" x="207.7526" y="165.1426">Prometheus</text></g><!--entity dd--><g class="entity" data-entity="dd" data-source-line="12" data-uid="ent0004" id="entity_dd"><rect fill="#FFC0CB" height="55.2188" rx="2.5" ry="2.5" style="stroke:#181818;stroke-width:0.5;" width="126.2754" x="346.07" y="123"/><text fill="#000000" font-family="sans-serif" font-size="14" font-style="italic" lengthAdjust="spacing" textLength="104.2754" x="357.07" y="147.5332">&#171;InfoDisclosure&#187;</text><text fill="#000000" font-family="sans-serif" font-size="14" font-weight="bold" lengthAdjust="spacing" textLength="56" x="381.2077" y="165.1426">Datadog</text></g><!--entity metrics--><g class="entity" data-entity="metrics" data-source-line="13" data-uid="ent0005" id="entity_metrics"><rect fill="#FFC0CB" height="55.2188" rx="2.5" ry="2.5" style="stroke:#181818;stroke-width:0.5;" width="126.2754" x="334.07" y="290.5"/><text fill="#000000" font-family="sans-serif" font-size="14" font-style="italic" lengthAdjust="spacing" textLength="104.2754" x="345.07" y="315.0332">&#171;InfoDisclosure&#187;</text><text fill="#000000" font-family="sans-serif" font-size="14" font-weight="bold" lengthAdjust="spacing" textLength="88.6963" x="352.8596" y="332.6426">Metrics Store</text></g><!--entity alerts--><g class="entity" data-entity="alerts" data-source-line="14" data-uid="ent0006" id="entity_alerts"><rect fill="#FFC0CB" height="55.2188" rx="2.5" ry="2.5" style="stroke:#181818;stroke-width:0.5;" width="126.2754" x="496.07" y="458"/><text fill="#000000" font-family="sans-serif" font-size="14" font-style="italic" lengthAdjust="spacing" textLength="104.2754" x="507.07" y="482.5332">&#171;InfoDisclosure&#187;</text><text fill="#000000" font-family="sans-serif" font-size="14" font-weight="bold" lengthAdjust="spacing" textLength="85.5928" x="516.4113" y="500.1426">Alert System</text></g><!--entity support--><g class="entity" data-entity="support" data-source-line="15" data-uid="ent0007" id="entity_support"><rect fill="#F1F1F1" height="37.6094" rx="2.5" ry="2.5" style="stroke:#181818;stroke-width:0.5;" width="108.71" x="504.57" y="591"/><text fill="#000000" font-family="sans-serif" font-size="14" lengthAdjust="spacing" textLength="88.71" x="514.57" y="615.5332">Support Team</text></g><!--entity attacker--><g class="entity" data-entity="attacker" data-source-line="16" data-uid="ent0008" id="entity_attacker"><rect fill="#F1F1F1" height="37.6094" rx="2.5" ry="2.5" style="stroke:#181818;stroke-width:0.5;" width="71.3516" x="469.57" y="7"/><text fill="#000000" font-family="sans-serif" font-size="14" lengthAdjust="spacing" textLength="51.3516" x="479.57" y="31.5332">Attacker</text></g><g class="entity" data-entity="GMN19" data-source-line="31" data-uid="ent0020" id="entity_GMN19"><path d="M495.07,256 L495.07,314 L460.32,318 L495.07,322 L495.07,380.4609 A0,0 0 0 0 495.07,380.4609 L667.0744,380.4609 A0,0 0 0 0 667.0744,380.4609 L667.0744,266 L657.0744,256 L495.07,256 A0,0 0 0 0 495.07,256" fill="#FEFFDD" style="stroke:#181818;stroke-width:0.5;"/><path d="M657.0744,256 L657.0744,266 L667.0744,266 L657.0744,256" fill="#FEFFDD" style="stroke:#181818;stroke-width:0.5;"/><text fill="#000000" font-family="sans-serif" font-size="13" lengthAdjust="spacing" textLength="98.9663" x="501.07" y="274.4951">STRIDE Threats:</text><text fill="#000000" font-family="sans-serif" font-size="13" lengthAdjust="spacing" textLength="135.1035" x="501.07" y="290.8467">S: Fake metric injection</text><text fill="#000000" font-family="sans-serif" font-size="13" lengthAdjust="spacing" textLength="123.5317" x="501.07" y="307.1982">T: Metric modification</text><text fill="#000000" font-family="sans-serif" font-size="13" lengthAdjust="spacing" textLength="135.8462" x="501.07" y="323.5498">R: Metric logging denial</text><text fill="#000000" font-family="sans-serif" font-size="13" lengthAdjust="spacing" textLength="91.7363" x="501.07" y="339.9014">I: PHI in metrics</text><text fill="#000000" font-family="sans-serif" font-size="13" lengthAdjust="spacing" textLength="137.2871" x="501.07" y="356.2529">D: Monitoring disruption</text><text fill="#000000" font-family="sans-serif" font-size="13" lengthAdjust="spacing" textLength="151.0044" x="501.07" y="372.6045">E: Metric access elevation</text></g><!--link app to prom--><g class="link" data-entity-1="app" data-entity-2="prom" data-source-line="18" data-uid="lnk9" id="link_app_prom"><path d="M55.02,43.85 C29.84,56.04 6,73.71 21.07,93 C41.11,118.64 119.0645,133.5129 179.0245,141.6529" fill="none" id="app-to-prom" style="stroke:#181818;stroke-width:1;"/><polygon fill="#181818" points="184.97,142.46,176.5899,137.2856,180.0154,141.7874,175.5137,145.2129,184.97,142.46" style="stroke:#181818;stroke-width:1;"/><text fill="#000000" font-family="sans-serif" font-size="13" lengthAdjust="spacing" textLength="107.6436" x="22.07" y="89.4951">Sends PHI metrics</text></g><!--link app to dd--><g class="link" data-entity-1="app" data-entity-2="dd" data-source-line="19" data-uid="lnk10" id="link_app_dd"><path d="M122.08,45.21 C141.94,60.08 171.96,80.61 201.07,93 C254.84,115.88 272.84,107.13 329.07,123 C334.56,124.55 334.5097,124.4613 340.1797,126.2213" fill="none" id="app-to-dd" style="stroke:#181818;stroke-width:1;"/><polygon fill="#181818" points="345.91,128,338.5004,121.5117,341.1348,126.5177,336.1288,129.1521,345.91,128" style="stroke:#181818;stroke-width:1;"/><text fill="#000000" font-family="sans-serif" font-size="13" lengthAdjust="spacing" textLength="85.979" x="202.07" y="89.4951">Auto-discovery</text></g><!--link prom to metrics--><g class="link" data-entity-1="prom" data-entity-2="metrics" data-source-line="20" data-uid="lnk11" id="link_prom_metrics"><path d="M272.01,178.09 C299.82,208.97 341.3957,255.1607 369.1757,286.0207" fill="none" id="prom-to-metrics" style="stroke:#181818;stroke-width:1;"/><polygon fill="#181818" points="373.19,290.48,370.1415,281.1148,369.8448,286.7639,364.1957,286.4672,373.19,290.48" style="stroke:#181818;stroke-width:1;"/><text fill="#000000" font-family="sans-serif" font-size="13" lengthAdjust="spacing" textLength="66.4854" x="314.07" y="222.4951">Stores data</text></g><!--link dd to metrics--><g class="link" data-entity-1="dd" data-entity-2="metrics" data-source-line="21" data-uid="lnk12" id="link_dd_metrics"><path d="M407.14,178.09 C404.9,208.97 401.6644,253.6357 399.4244,284.4957" fill="none" id="dd-to-metrics" style="stroke:#181818;stroke-width:1;"/><polygon fill="#181818" points="398.99,290.48,403.6311,281.7932,399.352,285.4931,395.6521,281.214,398.99,290.48" style="stroke:#181818;stroke-width:1;"/><text fill="#000000" font-family="sans-serif" font-size="13" lengthAdjust="spacing" textLength="66.4854" x="405.07" y="222.4951">Stores data</text></g><!--link metrics to alerts--><g class="link" data-entity-1="metrics" data-entity-2="alerts" data-source-line="22" data-uid="lnk13" id="link_metrics_alerts"><path d="M423.1,345.59 C453.33,376.47 498.7028,422.8324 528.9128,453.6924" fill="none" id="metrics-to-alerts" style="stroke:#181818;stroke-width:1;"/><polygon fill="#181818" points="533.11,457.98,529.6725,448.7505,529.6123,454.407,523.9558,454.3468,533.11,457.98" style="stroke:#181818;stroke-width:1;"/><text fill="#000000" font-family="sans-serif" font-size="13" lengthAdjust="spacing" textLength="83.0781" x="502.07" y="424.4951">Triggers alerts</text></g><!--link alerts to support--><g class="link" data-entity-1="alerts" data-entity-2="support" data-source-line="23" data-uid="lnk14" id="link_alerts_support"><path d="M559.07,513.08 C559.07,536.58 559.07,564.24 559.07,584.8" fill="none" id="alerts-to-support" style="stroke:#181818;stroke-width:1;"/><polygon fill="#181818" points="559.07,590.8,563.07,581.8,559.07,585.8,555.07,581.8,559.07,590.8" style="stroke:#181818;stroke-width:1;"/><text fill="#000000" font-family="sans-serif" font-size="13" lengthAdjust="spacing" textLength="43.3481" x="560.07" y="557.4951">Notifies</text></g><!--link attacker to prom--><g class="link" data-entity-1="attacker" data-entity-2="prom" data-source-line="25" data-uid="lnk15" id="link_attacker_prom"><path d="M469.26,30.32 C430.07,35.25 366.52,47.13 319.07,75 C298.58,87.03 283.9753,101.9905 271.0553,118.0905" fill="none" id="attacker-to-prom" style="stroke:#181818;stroke-width:1;"/><polygon fill="#181818" points="267.3,122.77,276.0526,118.2542,270.4294,118.8704,269.8132,113.2472,267.3,122.77" style="stroke:#181818;stroke-width:1;"/><text fill="#000000" font-family="sans-serif" font-size="13" lengthAdjust="spacing" textLength="91.019" x="320.07" y="89.4951">Queries metrics</text></g><!--link attacker to dd--><g class="link" data-entity-1="attacker" data-entity-2="dd" data-source-line="26" data-uid="lnk16" id="link_attacker_dd"><path d="M469.21,42.92 C455.19,50.75 440.11,61.47 430.07,75 C419.74,88.92 415.5254,101.82 412.8554,117.06" fill="none" id="attacker-to-dd" style="stroke:#181818;stroke-width:1;"/><polygon fill="#181818" points="411.82,122.97,417.3131,114.7953,412.6828,118.045,409.4331,113.4147,411.82,122.97" style="stroke:#181818;stroke-width:1;"/><text fill="#000000" font-family="sans-serif" font-size="13" lengthAdjust="spacing" textLength="120.6816" x="431.07" y="89.4951">Accesses dashboard</text></g><!--link attacker to metrics--><g class="link" data-entity-1="attacker" data-entity-2="metrics" data-source-line="27" data-uid="lnk17" id="link_attacker_metrics"><path d="M532.08,45.17 C541.52,53.1 551.01,63.28 556.07,75 C559.24,82.34 558.12,85.27 556.07,93 C534.22,175.27 469.8279,247.5231 430.2479,286.2631" fill="none" id="attacker-to-metrics" style="stroke:#181818;stroke-width:1;"/><polygon fill="#181818" points="425.96,290.46,435.1898,287.0233,429.5332,286.9626,429.5939,281.3061,425.96,290.46" style="stroke:#181818;stroke-width:1;"/><text fill="#000000" font-family="sans-serif" font-size="13" lengthAdjust="spacing" textLength="75.8672" x="546.07" y="155.9951">Extracts data</text></g><!--link attacker to alerts--><g class="link" data-entity-1="attacker" data-entity-2="alerts" data-source-line="28" data-uid="lnk18" id="link_attacker_alerts"><path d="M537.64,45.06 C551.79,53.46 568.26,64.02 582.07,75 C654.54,132.58 667.04,165.22 685.07,256 C695.81,310.06 708.5,330.12 685.07,380 C669.3,413.57 641.925,436.8378 613.915,454.7478" fill="none" id="attacker-to-alerts" style="stroke:#181818;stroke-width:1;"/><polygon fill="#181818" points="608.86,457.98,618.5973,456.5016,613.0725,455.2865,614.2876,449.7617,608.86,457.98" style="stroke:#181818;stroke-width:1;"/><text fill="#000000" font-family="sans-serif" font-size="13" lengthAdjust="spacing" textLength="70.0781" x="679.07" y="222.4951">Views alerts</text></g><!--SRC=[XLDDhzCm4BpxLwpUlU8ULPKAAT03lD94I1pTU9kQEbvhxRn7XVZlR3wQjb1eRjcPiMScctYqFcZM3J1MIVlQ8VnK8CzRNHrhfjQRT-I8v_CY4EsjhnSBs5X_l4ygTHEG1zOtT8vUx_Es65fZTRBaXVdCSZFUPwxzdd8RAqUnPVplvVbp8VW7rgVx-8esdRxbu53zKkeI-MaPWhDLx-S9T0GTmZKytoqsJ0sc0xPn_cQtw4b1Hl2tmp-4kKxQK3sfZ7ci-OI9RHMXICGuAPjn-b2-TCW9YbDCs4ngtGqVYOis119jYRhfLN4Ot7ILaZIBF9mwlYWbbS5ijXXQoQ10Ro9iFgxFjYU25931iaqqC-A2Nf1FgXTru3bZDcINkgG-9P9_W-TfnnX3Pb2ohMlaSsmr0XrdZ2IapvJitc8KysECwmHVMjbaZ1V_rvmXH5LXZBsFUDYHPdDBklXT_KYigpGwlY5DbhzQV9tyAay9GK8S4j1-yW1GbDjrleBomAXJpBf91k_r4KSEMFzTlfKiia1b1iCgGKD6eWuRBi1s0XpLjVolOD1RxGHQP_rNi_xgqbpevAsKtbDjv3QC9wscatJV1g33b-4QsG3eOlm6]--></g></svg>