<svg xmlns="http://www.w3.org/2000/svg" xmlns:xlink="http://www.w3.org/1999/xlink" contentStyleType="text/css" data-diagram-type="DESCRIPTION" height="635px" preserveAspectRatio="none" style="width:662px;height:635px;background:#FFFFFF;" version="1.1" viewBox="0 0 662 635" width="662px" zoomAndPan="magnify"><defs/><g><!--entity admin--><g class="entity" data-entity="admin" data-source-line="10" data-uid="ent0002" id="entity_admin"><rect fill="#F1F1F1" height="37.6094" rx="2.5" ry="2.5" style="stroke:#181818;stroke-width:0.5;" width="59.6826" x="368" y="7"/><text fill="#000000" font-family="sans-serif" font-size="14" lengthAdjust="spacing" textLength="39.6826" x="378" y="31.5332">Admin</text></g><!--entity iac--><g class="entity" data-entity="iac" data-source-line="11" data-uid="ent0003" id="entity_iac"><rect fill="#F1F1F1" height="37.6094" rx="2.5" ry="2.5" style="stroke:#181818;stroke-width:0.5;" width="104.0342" x="346" y="123"/><text fill="#000000" font-family="sans-serif" font-size="14" lengthAdjust="spacing" textLength="84.0342" x="356" y="147.5332">IaC Template</text></g><!--entity s3--><g class="entity" data-entity="s3" data-source-line="12" data-uid="ent0004" id="entity_s3"><rect fill="#FFC0CB" height="55.2188" rx="2.5" ry="2.5" style="stroke:#181818;stroke-width:0.5;" width="126.2754" x="142" y="273.5"/><text fill="#000000" font-family="sans-serif" font-size="14" font-style="italic" lengthAdjust="spacing" textLength="104.2754" x="153" y="298.0332">&#171;InfoDisclosure&#187;</text><text fill="#000000" font-family="sans-serif" font-size="14" font-weight="bold" lengthAdjust="spacing" textLength="67.6963" x="171.2896" y="315.6426">S3 Bucket</text></g><!--entity ec2--><g class="entity" data-entity="ec2" data-source-line="13" data-uid="ent0005" id="entity_ec2"><rect fill="#FFC0CB" height="55.2188" rx="2.5" ry="2.5" style="stroke:#181818;stroke-width:0.5;" width="126.2754" x="530" y="273.5"/><text fill="#000000" font-family="sans-serif" font-size="14" font-style="italic" lengthAdjust="spacing" textLength="104.2754" x="541" y="298.0332">&#171;InfoDisclosure&#187;</text><text fill="#000000" font-family="sans-serif" font-size="14" font-weight="bold" lengthAdjust="spacing" textLength="87.9238" x="549.1758" y="315.6426">EC2 Instance</text></g><!--entity cf--><g class="entity" data-entity="cf" data-source-line="14" data-uid="ent0006" id="entity_cf"><rect fill="#FFC0CB" height="55.2188" rx="2.5" ry="2.5" style="stroke:#181818;stroke-width:0.5;" width="128.0967" x="155" y="441"/><text fill="#000000" font-family="sans-serif" font-size="14" font-style="italic" lengthAdjust="spacing" textLength="104.2754" x="166.9106" y="465.5332">&#171;InfoDisclosure&#187;</text><text fill="#000000" font-family="sans-serif" font-size="14" font-weight="bold" lengthAdjust="spacing" textLength="108.0967" x="165" y="483.1426">CloudFormation</text></g><!--entity dash--><g class="entity" data-entity="dash" data-source-line="15" data-uid="ent0007" id="entity_dash"><rect fill="#FFC0CB" height="55.2188" rx="2.5" ry="2.5" style="stroke:#181818;stroke-width:0.5;" width="126.2754" x="7" y="574"/><text fill="#000000" font-family="sans-serif" font-size="14" font-style="italic" lengthAdjust="spacing" textLength="104.2754" x="18" y="598.5332">&#171;InfoDisclosure&#187;</text><text fill="#000000" font-family="sans-serif" font-size="14" font-weight="bold" lengthAdjust="spacing" textLength="73.124" x="33.5757" y="616.1426">Dashboard</text></g><!--entity attacker--><g class="entity" data-entity="attacker" data-source-line="16" data-uid="ent0008" id="entity_attacker"><rect fill="#F1F1F1" height="37.6094" rx="2.5" ry="2.5" style="stroke:#181818;stroke-width:0.5;" width="71.3516" x="25.5" y="282"/><text fill="#000000" font-family="sans-serif" font-size="14" lengthAdjust="spacing" textLength="51.3516" x="35.5" y="306.5332">Attacker</text></g><g class="entity" data-entity="GMN17" data-source-line="29" data-uid="ent0018" id="entity_GMN17"><path d="M303,239 L303,297 L268.28,301 L303,305 L303,363.4609 A0,0 0 0 0 303,363.4609 L495.2534,363.4609 A0,0 0 0 0 495.2534,363.4609 L495.2534,249 L485.2534,239 L303,239 A0,0 0 0 0 303,239" fill="#FEFFDD" style="stroke:#181818;stroke-width:0.5;"/><path d="M485.2534,239 L485.2534,249 L495.2534,249 L485.2534,239" fill="#FEFFDD" style="stroke:#181818;stroke-width:0.5;"/><text fill="#000000" font-family="sans-serif" font-size="13" lengthAdjust="spacing" textLength="98.9663" x="309" y="257.4951">STRIDE Threats:</text><text fill="#000000" font-family="sans-serif" font-size="13" lengthAdjust="spacing" textLength="151.7344" x="309" y="273.8467">S: False resource creation</text><text fill="#000000" font-family="sans-serif" font-size="13" lengthAdjust="spacing" textLength="122.8208" x="309" y="290.1982">T: Name modification</text><text fill="#000000" font-family="sans-serif" font-size="13" lengthAdjust="spacing" textLength="104.0571" x="309" y="306.5498">R: Creation denial</text><text fill="#000000" font-family="sans-serif" font-size="13" lengthAdjust="spacing" textLength="143.0571" x="309" y="322.9014">I: PHI in resource names</text><text fill="#000000" font-family="sans-serif" font-size="13" lengthAdjust="spacing" textLength="166.1753" x="309" y="339.2529">D: Naming service disruption</text><text fill="#000000" font-family="sans-serif" font-size="13" lengthAdjust="spacing" textLength="171.2534" x="309" y="355.6045">E: Resource access elevation</text></g><!--link admin to iac--><g class="link" data-entity-1="admin" data-entity-2="iac" data-source-line="18" data-uid="lnk9" id="link_admin_iac"><path d="M398,45.06 C398,66.28 398,95.3 398,116.64" fill="none" id="admin-to-iac" style="stroke:#181818;stroke-width:1;"/><polygon fill="#181818" points="398,122.64,402,113.64,398,117.64,394,113.64,398,122.64" style="stroke:#181818;stroke-width:1;"/><text fill="#000000" font-family="sans-serif" font-size="13" lengthAdjust="spacing" textLength="158.2598" x="399" y="89.4951">Creates naming convention</text></g><!--link iac to s3--><g class="link" data-entity-1="iac" data-entity-2="s3" data-source-line="19" data-uid="lnk10" id="link_iac_s3"><path d="M375.86,161.01 C342,188.56 281.7946,237.5339 242.4546,269.5339" fill="none" id="iac-to-s3" style="stroke:#181818;stroke-width:1;"/><polygon fill="#181818" points="237.8,273.32,247.306,270.7438,241.6788,270.1649,242.2578,264.5377,237.8,273.32" style="stroke:#181818;stroke-width:1;"/><text fill="#000000" font-family="sans-serif" font-size="13" lengthAdjust="spacing" textLength="135.1035" x="337" y="205.4951">Names bucket with PHI</text></g><!--link iac to ec2--><g class="link" data-entity-1="iac" data-entity-2="ec2" data-source-line="20" data-uid="lnk11" id="link_iac_ec2"><path d="M433.54,161.02 C448.71,169.34 466.27,179.85 481,191 C514.1,216.06 543.5607,245.7001 565.1907,269.0301" fill="none" id="iac-to-ec2" style="stroke:#181818;stroke-width:1;"/><polygon fill="#181818" points="569.27,273.43,566.0843,264.1106,565.8706,269.7634,560.2178,269.5497,569.27,273.43" style="stroke:#181818;stroke-width:1;"/><text fill="#000000" font-family="sans-serif" font-size="13" lengthAdjust="spacing" textLength="145.2217" x="502" y="205.4951">Names instance with PHI</text></g><!--link s3 to cf--><g class="link" data-entity-1="s3" data-entity-2="cf" data-source-line="21" data-uid="lnk12" id="link_s3_cf"><path d="M207.25,328.59 C209.86,359.47 213.6444,404.1413 216.2544,435.0013" fill="none" id="s3-to-cf" style="stroke:#181818;stroke-width:1;"/><polygon fill="#181818" points="216.76,440.98,219.9873,431.6749,216.3386,435.9978,212.0158,432.3491,216.76,440.98" style="stroke:#181818;stroke-width:1;"/><text fill="#000000" font-family="sans-serif" font-size="13" lengthAdjust="spacing" textLength="125.0107" x="216" y="407.4951">Logs resource names</text></g><!--link ec2 to cf--><g class="link" data-entity-1="ec2" data-entity-2="cf" data-source-line="22" data-uid="lnk13" id="link_ec2_cf"><path d="M562.19,328.7 C547.66,340.35 529.67,353.48 512,363 C437.35,403.21 349.8313,431.7592 288.8413,449.0992" fill="none" id="ec2-to-cf" style="stroke:#181818;stroke-width:1;"/><polygon fill="#181818" points="283.07,450.74,292.8208,452.1263,287.8794,449.3726,290.633,444.4312,283.07,450.74" style="stroke:#181818;stroke-width:1;"/><text fill="#000000" font-family="sans-serif" font-size="13" lengthAdjust="spacing" textLength="125.0107" x="444" y="407.4951">Logs resource names</text></g><!--link cf to dash--><g class="link" data-entity-1="cf" data-entity-2="dash" data-source-line="23" data-uid="lnk14" id="link_cf_dash"><path d="M188.85,496.01 C163.08,518.66 130.696,547.1382 104.866,569.8482" fill="none" id="cf-to-dash" style="stroke:#181818;stroke-width:1;"/><polygon fill="#181818" points="100.36,573.81,109.7602,570.8714,104.115,570.5085,104.4779,564.8633,100.36,573.81" style="stroke:#181818;stroke-width:1;"/><text fill="#000000" font-family="sans-serif" font-size="13" lengthAdjust="spacing" textLength="91.7554" x="155" y="540.4951">Displays names</text></g><!--link attacker to dash--><g class="link" data-entity-1="attacker" data-entity-2="dash" data-source-line="25" data-uid="lnk15" id="link_attacker_dash"><path d="M59.84,320.21 C57.84,354.59 54.3,431.43 58,496 C59.52,522.62 62.395,546.9156 65.285,567.9956" fill="none" id="attacker-to-dash" style="stroke:#181818;stroke-width:1;"/><polygon fill="#181818" points="66.1,573.94,68.8405,564.4801,65.4209,568.9863,60.9146,565.5667,66.1,573.94" style="stroke:#181818;stroke-width:1;"/><text fill="#000000" font-family="sans-serif" font-size="13" lengthAdjust="spacing" textLength="77.3081" x="59" y="473.9951">Views names</text></g><!--link attacker to cf--><g class="link" data-entity-1="attacker" data-entity-2="cf" data-source-line="26" data-uid="lnk16" id="link_attacker_cf"><path d="M69.22,320.33 C80.28,343.5 101.75,383.68 129,411 C140.2,422.23 148.9548,429.1156 162.3848,437.5256" fill="none" id="attacker-to-cf" style="stroke:#181818;stroke-width:1;"/><polygon fill="#181818" points="167.47,440.71,161.9651,432.5432,163.2323,438.0563,157.7192,439.3235,167.47,440.71" style="stroke:#181818;stroke-width:1;"/><text fill="#000000" font-family="sans-serif" font-size="13" lengthAdjust="spacing" textLength="74.4136" x="130" y="407.4951">Extracts logs</text></g><!--SRC=[XPBHQzim4CRVzLSSVI-3ziq4Gskxcs6i8J63FLxaioCYIqQIavMn_tqdnqxIBZH-ikxxVJhT9_cTCZqwxC2H36XQJV1707_FA7UjiuEfCwkjMopMlRMDCcsQmbAPtNMemgudTwH-aTRsS9rRKJ_K2eEoXibNnvtfEbcQnkRAIstzuEZJvldhclMl3j-kwuLTHl_WUatYhn3daU-UwawPEq0F6FykfH8pgAZhDGOQ2ONoKbziqlKZF0zoHs7nPPEEZ7-4_u_-mLLa3r0QpnL99oF9XzlEJDkXVh6k6mCyUMLpsvgZtsuiklhaghbom_SK0cT9xXZGj11YZ0hkxzCO2IIGEUACF1ZaUWlIcZsPU48HzSXnB0dym8wXpHWO75JOml9RUK9Y03EZfdJE56yG8PuqWU-szVnilHqS8oOwH7H_2h0GzN7e17XWljStFubYdksI-QdeC0FlzB57yJiubC63vcP261i8d6gt0Mp3u_93N5UhCY-WsiPqV18h2RoWzdG-cunQ30gWEWuFdQrLe-HSNatnyWfgCWer5yiaXi8nVPmI81-tYTVWoUqLAxNoRkYdxOe4LhC5fIJFBq_J_jYDJ0rna7y0]--></g></svg>